<svg xmlns="http://www.w3.org/2000/svg" xmlns:xlink="http://www.w3.org/1999/xlink" width="500" zoomAndPan="magnify" viewBox="0 0 375 149.999998" height="200" preserveAspectRatio="xMidYMid meet" version="1.0"><defs><g/><clipPath id="87a0775a08"><rect x="0" width="184" y="0" height="131"/></clipPath></defs><path fill="#0071bc" d="M 112.769531 98.699219 C 118.039062 108.261719 135.152344 126.085938 160.289062 93.511719 L 160.539062 93.691406 C 166.230469 83.460938 172.363281 71.296875 175.902344 62.816406 C 182.324219 47.421875 187.453125 28.78125 186.382812 21.03125 C 185.3125 13.285156 173.9375 11.003906 163.230469 20.421875 C 152.527344 29.84375 150.652344 40.027344 150.652344 40.027344 C 150.652344 40.027344 137.136719 89.105469 130.710938 101.414062 C 124.289062 113.722656 118.398438 105.972656 117.332031 104.757812 C 116.777344 104.132812 114.980469 101.804688 112.769531 98.699219 Z M 73.121094 106.679688 C 77.253906 119.257812 92.132812 101.335938 104.261719 117.011719 C 98.753906 110.378906 93.96875 110.453125 89.984375 112.863281 C 85.792969 115.390625 80.976562 126.539062 75.710938 127.953125 C 70.445312 129.371094 63.132812 129.878906 56.171875 117.824219 C 49.214844 105.769531 31.28125 73.554688 30.121094 67.171875 C 28.960938 60.792969 29.140625 55.21875 29.140625 55.21875 C 28.605469 47.929688 34.089844 37.136719 42.925781 44.433594 C 42.925781 44.433594 46.46875 47.625 48.878906 53.015625 C 51.289062 58.410156 69.019531 98.476562 69.019531 98.476562 C 69.019531 98.476562 71.644531 103.726562 73.15625 106.660156 L 73.121094 106.679688 " fill-opacity="1" fill-rule="nonzero"/><path fill="#00bf63" d="M 94.660156 52.425781 C 87.886719 54.527344 83.5 60.808594 84.859375 66.453125 C 86.21875 72.097656 92.8125 74.96875 99.585938 72.867188 C 106.355469 70.761719 110.746094 64.480469 109.386719 58.835938 C 108.027344 53.195312 101.433594 50.324219 94.660156 52.425781 Z M 104.261719 117.011719 C 92.132812 101.335938 77.253906 119.257812 73.121094 106.679688 L 73.15625 106.660156 C 73.53125 107.390625 73.835938 107.976562 74.015625 108.300781 C 74.90625 109.921875 76.515625 112.050781 79.992188 106.984375 C 83.472656 101.921875 91.414062 87.636719 91.414062 87.636719 C 91.414062 87.636719 92.304688 86.117188 94.625 84.496094 C 96.945312 82.875 101.761719 81.355469 106.132812 88.652344 C 108.25 92.183594 110.691406 95.785156 112.769531 98.699219 C 118.039062 108.261719 135.152344 126.085938 160.289062 93.511719 L 160.539062 93.691406 C 155.894531 102.046875 151.542969 109.113281 149.136719 111.847656 C 143.78125 117.925781 137.804688 123.75 128.4375 125.117188 C 119.070312 126.484375 111.039062 125.878906 105.152344 118.128906 C 104.855469 117.734375 104.5625 117.367188 104.261719 117.011719 " fill-opacity="1" fill-rule="nonzero"/><g transform="matrix(1, 0, 0, 1, 164, 19)"><g clip-path="url(#87a0775a08)"><g fill="#ffffff" fill-opacity="1"><g transform="translate(0.201225, 97.990867)"><g><path d="M 1.359375 -13.828125 C 1.359375 -16.640625 2.015625 -19.257812 3.328125 -21.6875 C 4.648438 -24.113281 6.390625 -26.203125 8.546875 -27.953125 C 10.703125 -29.703125 13.128906 -31.078125 15.828125 -32.078125 C 18.535156 -33.078125 21.273438 -33.578125 24.046875 -33.578125 C 25.585938 -33.578125 26.957031 -33.078125 28.15625 -32.078125 C 29.363281 -31.078125 30.375 -29.859375 31.1875 -28.421875 C 32.007812 -26.992188 32.632812 -25.484375 33.0625 -23.890625 C 33.488281 -22.304688 33.703125 -20.925781 33.703125 -19.75 C 33.703125 -17.207031 33.085938 -14.742188 31.859375 -12.359375 C 30.640625 -9.972656 29.050781 -7.859375 27.09375 -6.015625 C 25.144531 -4.179688 22.945312 -2.695312 20.5 -1.5625 C 18.050781 -0.425781 15.597656 0.140625 13.140625 0.140625 C 10.960938 0.140625 9.125 -0.234375 7.625 -0.984375 C 6.125 -1.734375 4.921875 -2.734375 4.015625 -3.984375 C 3.109375 -5.234375 2.4375 -6.707031 2 -8.40625 C 1.570312 -10.113281 1.359375 -11.921875 1.359375 -13.828125 Z M 7.15625 -13.140625 C 7.15625 -11.960938 7.253906 -10.929688 7.453125 -10.046875 C 7.660156 -9.160156 8.023438 -8.398438 8.546875 -7.765625 C 9.066406 -7.128906 9.757812 -6.640625 10.625 -6.296875 C 11.488281 -5.953125 12.554688 -5.78125 13.828125 -5.78125 C 15.503906 -5.78125 17.179688 -6.242188 18.859375 -7.171875 C 20.546875 -8.109375 22.054688 -9.289062 23.390625 -10.71875 C 24.734375 -12.15625 25.8125 -13.734375 26.625 -15.453125 C 27.445312 -17.179688 27.859375 -18.863281 27.859375 -20.5 C 27.859375 -21.226562 27.785156 -22.019531 27.640625 -22.875 C 27.503906 -23.738281 27.273438 -24.535156 26.953125 -25.265625 C 26.640625 -25.992188 26.1875 -26.609375 25.59375 -27.109375 C 25.007812 -27.609375 24.265625 -27.859375 23.359375 -27.859375 C 22.535156 -27.859375 21.566406 -27.582031 20.453125 -27.03125 C 19.347656 -26.488281 18.191406 -25.785156 16.984375 -24.921875 C 15.785156 -24.054688 14.609375 -23.078125 13.453125 -21.984375 C 12.296875 -20.898438 11.238281 -19.8125 10.28125 -18.71875 C 9.332031 -17.632812 8.570312 -16.59375 8 -15.59375 C 7.4375 -14.59375 7.15625 -13.773438 7.15625 -13.140625 Z M 7.15625 -13.140625 "/></g></g></g><g fill="#ffffff" fill-opacity="1"><g transform="translate(35.1998, 97.990867)"><g><path d="M 1.359375 -28.609375 C 1.359375 -29.015625 1.378906 -29.429688 1.421875 -29.859375 C 1.472656 -30.296875 1.566406 -30.679688 1.703125 -31.015625 C 1.835938 -31.359375 2.050781 -31.644531 2.34375 -31.875 C 2.644531 -32.101562 3.066406 -32.21875 3.609375 -32.21875 C 4.066406 -32.21875 4.578125 -31.863281 5.140625 -31.15625 C 5.710938 -30.445312 6.289062 -29.5625 6.875 -28.5 C 7.46875 -27.4375 8.046875 -26.265625 8.609375 -24.984375 C 9.179688 -23.710938 9.679688 -22.546875 10.109375 -21.484375 C 10.546875 -20.421875 10.898438 -19.5 11.171875 -18.71875 C 11.441406 -17.945312 11.597656 -17.539062 11.640625 -17.5 C 12.234375 -19.09375 12.890625 -20.816406 13.609375 -22.671875 C 14.335938 -24.535156 15.234375 -26.269531 16.296875 -27.875 C 17.367188 -29.488281 18.644531 -30.84375 20.125 -31.9375 C 21.601562 -33.03125 23.40625 -33.578125 25.53125 -33.578125 C 26.625 -33.578125 27.65625 -33.40625 28.625 -33.0625 C 29.601562 -32.71875 30.46875 -32.21875 31.21875 -31.5625 C 31.96875 -30.90625 32.566406 -30.125 33.015625 -29.21875 C 33.472656 -28.3125 33.703125 -27.265625 33.703125 -26.078125 C 33.703125 -25.078125 33.304688 -24.375 32.515625 -23.96875 C 31.722656 -23.5625 30.828125 -23.359375 29.828125 -23.359375 L 29.140625 -23.359375 L 26.21875 -26.28125 C 26.125 -26.28125 26.054688 -26.304688 26.015625 -26.359375 C 25.921875 -26.359375 25.835938 -26.367188 25.765625 -26.390625 C 25.703125 -26.410156 25.625 -26.421875 25.53125 -26.421875 C 23.945312 -26.421875 22.710938 -25.976562 21.828125 -25.09375 C 20.941406 -24.207031 20.269531 -23.117188 19.8125 -21.828125 C 19.363281 -20.535156 19.082031 -19.171875 18.96875 -17.734375 C 18.851562 -16.304688 18.796875 -15.003906 18.796875 -13.828125 C 18.796875 -12.921875 18.882812 -12 19.0625 -11.0625 C 19.25 -10.132812 19.453125 -9.226562 19.671875 -8.34375 C 19.898438 -7.457031 20.101562 -6.546875 20.28125 -5.609375 C 20.46875 -4.679688 20.5625 -3.71875 20.5625 -2.71875 C 20.5625 -0.8125 19.539062 0.140625 17.5 0.140625 C 16.363281 0.140625 15.179688 -0.457031 13.953125 -1.65625 C 12.734375 -2.863281 11.519531 -4.398438 10.3125 -6.265625 C 9.113281 -8.128906 7.96875 -10.179688 6.875 -12.421875 C 5.789062 -14.671875 4.835938 -16.863281 4.015625 -19 C 3.203125 -21.132812 2.554688 -23.0625 2.078125 -24.78125 C 1.597656 -26.507812 1.359375 -27.785156 1.359375 -28.609375 Z M 1.359375 -28.609375 "/></g></g></g><g fill="#3a73c1" fill-opacity="1"><g transform="translate(70.000519, 97.990867)"><g><path d="M 14.578125 -1.359375 C 13.847656 -0.722656 13.082031 -1.019531 12.28125 -2.25 C 11.488281 -3.476562 10.6875 -5.328125 9.875 -7.796875 C 9.0625 -10.273438 8.253906 -13.238281 7.453125 -16.6875 C 6.660156 -20.132812 5.898438 -23.785156 5.171875 -27.640625 C 4.453125 -31.503906 3.757812 -35.421875 3.09375 -39.390625 C 2.4375 -43.367188 1.859375 -47.101562 1.359375 -50.59375 C 1.359375 -51.226562 1.347656 -51.875 1.328125 -52.53125 C 1.304688 -53.195312 1.375 -53.8125 1.53125 -54.375 C 1.6875 -54.945312 1.976562 -55.457031 2.40625 -55.90625 C 2.84375 -56.363281 3.515625 -56.707031 4.421875 -56.9375 C 4.515625 -56.976562 4.707031 -56.941406 5 -56.828125 C 5.300781 -56.710938 5.609375 -56.578125 5.921875 -56.421875 C 6.242188 -56.265625 6.53125 -56.09375 6.78125 -55.90625 C 7.03125 -55.726562 7.195312 -55.570312 7.28125 -55.4375 C 6.695312 -46.945312 7.675781 -38.679688 10.21875 -30.640625 C 10.351562 -30.773438 10.710938 -31.238281 11.296875 -32.03125 C 11.890625 -32.832031 12.640625 -33.765625 13.546875 -34.828125 C 14.453125 -35.898438 15.484375 -37.046875 16.640625 -38.265625 C 17.804688 -39.492188 19.023438 -40.628906 20.296875 -41.671875 C 21.566406 -42.722656 22.835938 -43.597656 24.109375 -44.296875 C 25.378906 -45.003906 26.601562 -45.359375 27.78125 -45.359375 C 28.46875 -45.359375 29.140625 -45.195312 29.796875 -44.875 C 30.453125 -44.5625 30.78125 -43.953125 30.78125 -43.046875 C 30.78125 -42.953125 30.753906 -42.820312 30.703125 -42.65625 C 30.660156 -42.5 30.640625 -42.378906 30.640625 -42.296875 C 29.921875 -41.660156 28.820312 -40.679688 27.34375 -39.359375 C 25.863281 -38.046875 24.304688 -36.570312 22.671875 -34.9375 C 21.035156 -33.300781 19.46875 -31.597656 17.96875 -29.828125 C 16.476562 -28.054688 15.347656 -26.375 14.578125 -24.78125 C 14.441406 -24.507812 14.394531 -24.269531 14.4375 -24.0625 C 14.476562 -23.863281 14.523438 -23.628906 14.578125 -23.359375 C 15.078125 -23.171875 15.867188 -22.894531 16.953125 -22.53125 C 18.046875 -22.175781 19.25 -21.757812 20.5625 -21.28125 C 21.882812 -20.800781 23.289062 -20.300781 24.78125 -19.78125 C 26.28125 -19.257812 27.6875 -18.75 29 -18.25 C 30.320312 -17.75 31.515625 -17.304688 32.578125 -16.921875 C 33.648438 -16.535156 34.457031 -16.253906 35 -16.078125 C 35.632812 -15.796875 36.15625 -15.609375 36.5625 -15.515625 C 36.976562 -15.429688 37.296875 -15.304688 37.515625 -15.140625 C 37.742188 -14.984375 37.90625 -14.769531 38 -14.5 C 38.09375 -14.226562 38.140625 -13.820312 38.140625 -13.28125 C 38.140625 -11.957031 37.820312 -11.09375 37.1875 -10.6875 C 36.550781 -10.28125 35.640625 -10.078125 34.453125 -10.078125 C 30.960938 -10.304688 27.535156 -11.046875 24.171875 -12.296875 C 20.816406 -13.546875 17.410156 -15.054688 13.953125 -16.828125 C 13.816406 -15.960938 13.875 -14.960938 14.125 -13.828125 C 14.375 -12.691406 14.679688 -11.554688 15.046875 -10.421875 C 15.410156 -9.285156 15.757812 -8.171875 16.09375 -7.078125 C 16.4375 -5.992188 16.644531 -5.019531 16.71875 -4.15625 C 16.789062 -3.289062 16.6875 -2.609375 16.40625 -2.109375 C 16.132812 -1.609375 15.523438 -1.359375 14.578125 -1.359375 Z M 14.578125 -1.359375 "/></g></g></g><g fill="#ffffff" fill-opacity="1"><g transform="translate(109.426378, 97.990867)"><g><path d="M 24.78125 -33.578125 C 24.875 -33.660156 24.953125 -33.78125 25.015625 -33.9375 C 25.085938 -34.101562 25.125 -34.234375 25.125 -34.328125 C 25.125 -35.367188 24.5 -36.054688 23.25 -36.390625 C 22.007812 -36.734375 20.457031 -36.894531 18.59375 -36.875 C 16.726562 -36.851562 14.71875 -36.75 12.5625 -36.5625 C 10.40625 -36.382812 8.394531 -36.304688 6.53125 -36.328125 C 4.675781 -36.347656 3.125 -36.570312 1.875 -37 C 0.625 -37.4375 0 -38.25 0 -39.4375 C 0 -40.207031 0.0546875 -40.785156 0.171875 -41.171875 C 0.285156 -41.554688 0.453125 -41.828125 0.671875 -41.984375 C 0.898438 -42.140625 1.1875 -42.226562 1.53125 -42.25 C 1.875 -42.28125 2.25 -42.296875 2.65625 -42.296875 L 4.421875 -42.296875 C 4.972656 -42.242188 5.859375 -42.179688 7.078125 -42.109375 C 8.304688 -42.046875 9.691406 -41.976562 11.234375 -41.90625 C 12.773438 -41.84375 14.394531 -41.753906 16.09375 -41.640625 C 17.800781 -41.523438 19.414062 -41.421875 20.9375 -41.328125 C 22.457031 -41.242188 23.816406 -41.15625 25.015625 -41.0625 C 26.222656 -40.96875 27.144531 -40.898438 27.78125 -40.859375 C 28.601562 -40.359375 29.296875 -39.90625 29.859375 -39.5 C 30.429688 -39.09375 30.882812 -38.679688 31.21875 -38.265625 C 31.5625 -37.859375 31.8125 -37.414062 31.96875 -36.9375 C 32.132812 -36.46875 32.21875 -35.867188 32.21875 -35.140625 C 32.21875 -33.597656 31.894531 -32.085938 31.25 -30.609375 C 30.613281 -29.128906 29.804688 -27.648438 28.828125 -26.171875 C 27.859375 -24.703125 26.75 -23.226562 25.5 -21.75 C 24.25 -20.28125 23.035156 -18.816406 21.859375 -17.359375 C 20.679688 -15.910156 19.566406 -14.457031 18.515625 -13 C 17.472656 -11.550781 16.660156 -10.144531 16.078125 -8.78125 L 33.578125 -8.78125 C 34.890625 -8.78125 35.726562 -8.53125 36.09375 -8.03125 C 36.457031 -7.53125 36.640625 -6.828125 36.640625 -5.921875 C 36.640625 -5.285156 36.570312 -4.695312 36.4375 -4.15625 C 36.300781 -3.613281 35.820312 -3.203125 35 -2.921875 C 32.820312 -2.742188 30.617188 -2.472656 28.390625 -2.109375 C 26.171875 -1.742188 23.945312 -1.378906 21.71875 -1.015625 C 19.5 -0.660156 17.265625 -0.34375 15.015625 -0.0625 C 12.765625 0.207031 10.53125 0.34375 8.3125 0.34375 C 8.3125 -2.925781 8.820312 -6.070312 9.84375 -9.09375 C 10.863281 -12.113281 12.175781 -15.03125 13.78125 -17.84375 C 15.394531 -20.65625 17.164062 -23.378906 19.09375 -26.015625 C 21.03125 -28.648438 22.925781 -31.171875 24.78125 -33.578125 Z M 24.78125 -33.578125 "/></g></g></g><g fill="#00bf63" fill-opacity="1"><g transform="translate(148.852238, 97.990867)"><g><path d="M 0.203125 -35.203125 C 0.203125 -35.617188 0.210938 -36.039062 0.234375 -36.46875 C 0.253906 -36.894531 0.34375 -37.300781 0.5 -37.6875 C 0.664062 -38.070312 0.894531 -38.367188 1.1875 -38.578125 C 1.488281 -38.785156 1.929688 -38.890625 2.515625 -38.890625 C 2.566406 -38.890625 2.625 -38.890625 2.6875 -38.890625 C 2.757812 -38.890625 2.835938 -38.890625 2.921875 -38.890625 C 3.054688 -38.835938 3.171875 -38.8125 3.265625 -38.8125 C 4.128906 -37.632812 4.878906 -36.125 5.515625 -34.28125 C 6.148438 -32.445312 6.757812 -30.492188 7.34375 -28.421875 C 7.9375 -26.359375 8.570312 -24.269531 9.25 -22.15625 C 9.9375 -20.050781 10.820312 -18.15625 11.90625 -16.46875 C 13 -14.789062 14.335938 -13.453125 15.921875 -12.453125 C 17.515625 -11.460938 19.492188 -11.035156 21.859375 -11.171875 C 22.898438 -11.171875 23.578125 -11.738281 23.890625 -12.875 C 24.210938 -14.007812 24.382812 -15.460938 24.40625 -17.234375 C 24.4375 -19.003906 24.394531 -20.953125 24.28125 -23.078125 C 24.164062 -25.210938 24.164062 -27.242188 24.28125 -29.171875 C 24.394531 -31.109375 24.734375 -32.800781 25.296875 -34.25 C 25.867188 -35.707031 26.859375 -36.6875 28.265625 -37.1875 C 28.847656 -36 29.332031 -34.144531 29.71875 -31.625 C 30.101562 -29.113281 30.382812 -26.210938 30.5625 -22.921875 C 30.75 -19.628906 30.84375 -16.0625 30.84375 -12.21875 C 30.84375 -8.382812 30.75 -4.570312 30.5625 -0.78125 C 30.382812 3.007812 30.113281 6.648438 29.75 10.140625 C 29.394531 13.640625 28.988281 16.707031 28.53125 19.34375 C 28.082031 21.976562 27.550781 24.054688 26.9375 25.578125 C 26.320312 27.097656 25.675781 27.742188 25 27.515625 C 24.039062 26.609375 23.300781 25.425781 22.78125 23.96875 C 22.257812 22.519531 21.894531 20.910156 21.6875 19.140625 C 21.488281 17.367188 21.410156 15.492188 21.453125 13.515625 C 21.492188 11.546875 21.570312 9.5625 21.6875 7.5625 C 21.800781 5.5625 21.9375 3.609375 22.09375 1.703125 C 22.257812 -0.203125 22.34375 -1.953125 22.34375 -3.546875 C 20.707031 -3.410156 19.035156 -3.660156 17.328125 -4.296875 C 15.628906 -4.929688 13.960938 -5.914062 12.328125 -7.25 C 10.691406 -8.59375 9.132812 -10.21875 7.65625 -12.125 C 6.1875 -14.03125 4.894531 -16.1875 3.78125 -18.59375 C 2.664062 -21 1.789062 -23.597656 1.15625 -26.390625 C 0.519531 -29.179688 0.203125 -32.117188 0.203125 -35.203125 Z M 0.203125 -35.203125 "/></g></g></g></g></g></svg>